<svg width="17" height="19" viewBox="0 0 17 19" fill="none" xmlns="http://www.w3.org/2000/svg">
    <path d="M10 1.375V2.04297C11.3125 2.32422 12.3789 2.96875 13.1992 3.97656C14.043 4.98438 14.4766 6.17969 14.5 7.5625V8.23047C14.5234 9.94141 15.0977 11.4297 16.2227 12.6953L16.4688 13.0117C16.7734 13.3633 16.832 13.7617 16.6445 14.207C16.4336 14.6289 16.0938 14.8516 15.625 14.875H2.125C1.65625 14.8516 1.31641 14.6289 1.10547 14.207C0.917969 13.7617 0.976562 13.3633 1.28125 13.0117L1.5625 12.6953C2.66406 11.4297 3.22656 9.94141 3.25 8.23047V7.5625C3.27344 6.17969 3.69531 4.98438 4.51562 3.97656C5.35938 2.96875 6.4375 2.32422 7.75 2.04297V1.375C7.75 1.04688 7.85547 0.777344 8.06641 0.566406C8.27734 0.355469 8.54688 0.25 8.875 0.25C9.20312 0.25 9.47266 0.355469 9.68359 0.566406C9.89453 0.777344 10 1.04688 10 1.375ZM8.875 18.25C8.26562 18.25 7.73828 18.0273 7.29297 17.582C6.84766 17.1367 6.625 16.6094 6.625 16H11.125C11.125 16.6094 10.9023 17.1367 10.457 17.582C10.0117 18.0273 9.48438 18.25 8.875 18.25Z" fill="white"/>
</svg>
